Land_normalized_Motion_pl07
version=1
nRows=23
nColumns=43
inDegrees=yes
endheader
time		pelvis_tilt		pelvis_list		pelvis_rotation		pelvis_tx		pelvis_ty		pelvis_tz		hip_flexion_r		hip_adduction_r		hip_rotation_r		knee_angle_r		ankle_angle_r		subtalar_angle_r		mtp_angle_r		hip_flexion_l		hip_adduction_l		hip_rotation_l		knee_angle_l		ankle_angle_l		subtalar_angle_l		mtp_angle_l		lumbar_extension		lumbar_bending		lumbar_rotation		neck_flexion		neck_lateral_bending		neck_rotation		arm_flex_r		arm_add_r		arm_rot_r		elbow_flex_r		pro_sup_r		wrist_flex_r		wrist_dev_r		hand_finger_flex_r		arm_flex_l		arm_add_l		arm_rot_l		elbow_flex_l		pro_sup_l		wrist_flex_l		wrist_dev_l		hand_finger_flex_l		
0.891667		2.996872		0.350801		90.752419		-0.011010		0.459094		0.403678		87.766740		-14.006432		-3.994221		-129.892960		37.522477		7.856652		1.626464		91.263981		-7.042406		6.709748		-131.694129		33.029902		-5.361167		0.058627		-54.879105		3.963486		2.428855		27.959509		3.175202		3.389258		30.126370		-36.087983		-2.271270		74.443888		98.261376		-42.483136		-25.000000		57.024498		32.672249		-40.661870		10.161367		79.155771		99.274862		-40.157842		-6.352613		90.000210		
0.894495		3.041404		0.439855		90.775793		-0.010632		0.454538		0.402439		88.142068		-14.113707		-4.033137		-130.628656		37.790099		7.843111		1.550469		91.710693		-7.077724		6.976895		-132.396605		33.262819		-5.081259		0.112680		-55.037828		3.943791		2.418880		27.557909		3.228719		3.388235		32.969148		-36.428489		-0.521193		74.089617		98.748052		-41.873650		-25.000000		57.635263		35.663639		-41.024639		11.797160		79.068775		99.701907		-39.664274		-6.131445		90.000210		
0.897323		3.080278		0.525281		90.794197		-0.010264		0.449973		0.401196		88.545715		-14.219957		-4.039561		-131.365342		38.022085		7.856476		1.462502		92.138858		-7.122642		7.264103		-133.091397		33.608673		-4.678296		0.174265		-55.174317		3.922489		2.433833		27.137038		3.233589		3.370267		35.750818		-36.780602		1.240770		73.730554		99.295190		-41.271152		-25.000000		58.441819		38.667653		-41.309190		13.492883		78.897867		100.085411		-39.190500		-5.719746		90.000210		
0.900152		3.102371		0.597686		90.813262		-0.009934		0.445408		0.399956		88.990967		-14.336532		-4.013307		-132.102273		38.201894		7.898889		1.388797		92.560269		-7.166439		7.536923		-133.771113		33.992510		-4.254713		0.226075		-55.289430		3.900708		2.448989		26.727027		3.191548		3.335725		38.482779		-37.132046		3.029640		73.387364		99.862943		-40.674089		-24.947865		59.269772		41.641973		-41.532338		15.211559		78.659878		100.472619		-38.710723		-5.239488		90.000210		
0.902980		3.091954		0.563765		90.831999		-0.009720		0.440765		0.398721		89.592539		-14.494251		-3.957315		-132.847616		38.327302		7.954482		1.368684		93.070872		-7.222296		7.739282		-134.402293		34.350016		-3.937642		0.267209		-55.344660		3.895685		2.458971		26.624154		3.062238		3.298773		41.132447		-37.611446		4.917068		73.206900		100.468165		-39.985034		-24.844063		59.778446		44.469954		-41.728028		16.823762		78.496612		100.900543		-38.205093		-4.934949		90.000210		
0.905808		3.082488		0.695936		90.870755		-0.009389		0.436372		0.397594		90.010224		-14.582179		-3.803259		-133.554450		38.379867		8.085288		1.346443		93.387899		-7.227602		8.022350		-135.052727		34.818209		-3.399159		0.310279		-55.450112		3.850468		2.408711		25.916899		2.991751		3.284977		43.890769		-37.850745		6.833381		72.719720		101.055925		-39.339919		-24.552268		60.467940		47.472343		-41.862193		18.673123		77.943847		101.311235		-37.629930		-4.345127		90.000210		
0.908636		3.048193		0.875056		90.901737		-0.009147		0.432061		0.396341		90.428810		-14.714339		-3.615587		-134.326065		38.397799		8.286580		1.336817		93.632945		-7.284036		8.269146		-135.718157		35.341110		-2.753098		0.327829		-55.567654		3.806441		2.372609		25.201374		2.932613		3.276065		46.601048		-37.996644		8.712517		72.188600		101.611801		-38.834623		-24.071427		61.345011		50.452977		-41.895786		20.565963		77.308583		101.661745		-37.072078		-3.531726		90.000210		
0.911465		2.993917		0.953229		90.941270		-0.008955		0.427732		0.395178		90.975883		-14.834050		-3.365930		-135.072766		38.348044		8.516192		1.356773		93.970381		-7.326169		8.477386		-136.333394		35.827043		-2.210901		0.314113		-55.645352		3.768903		2.315127		24.762126		2.802993		3.258417		49.265386		-38.248292		10.693677		71.802368		102.178552		-38.317519		-23.626142		62.102839		53.340151		-41.973468		22.430895		76.754816		102.062294		-36.521354		-2.813835		90.000210		
0.914293		2.936337		0.948559		90.984362		-0.008815		0.423387		0.394045		91.638170		-14.922387		-3.056180		-135.810218		38.231197		8.750446		1.390226		94.385839		-7.351992		8.663323		-136.921848		36.281781		-1.757185		0.302006		-55.671725		3.747840		2.240368		24.489161		2.633403		3.257217		51.879840		-38.535326		12.709894		71.524065		102.761695		-37.700493		-23.307388		62.617891		56.105052		-42.062072		24.215451		76.224450		102.511550		-35.966553		-2.275333		90.000210		
0.917121		2.864140		0.929629		91.031028		-0.008723		0.419211		0.392953		92.324604		-15.060424		-2.740109		-136.543850		38.055030		9.017349		1.428316		94.798251		-7.430126		8.792273		-137.467720		36.717743		-1.291399		0.296907		-55.685254		3.715720		2.157242		24.258929		2.449167		3.283759		54.491201		-38.740978		14.697254		71.123144		103.325269		-37.009281		-22.988217		62.968430		58.845862		-42.081451		25.992766		75.638116		102.976042		-35.398948		-1.801540		90.000210		
0.919949		2.782231		1.009565		91.068377		-0.008580		0.415208		0.391867		92.915585		-15.123853		-2.361875		-137.275937		37.838644		9.367506		1.487792		95.095325		-7.479645		8.960143		-138.052016		37.197341		-0.738961		0.273823		-55.759940		3.665131		2.009106		23.791667		2.322272		3.328508		57.097160		-38.782350		16.680515		70.688617		103.821041		-36.327792		-22.536882		63.291852		61.603553		-42.153264		27.900490		74.932955		103.399506		-34.820884		-1.195521		90.000210		
0.922778		2.688873		1.211420		91.113514		-0.008388		0.411586		0.390816		93.364517		-15.236676		-1.974735		-138.016404		37.651856		9.837631		1.631994		95.235738		-7.602996		9.117699		-138.601076		37.711934		-0.043502		0.150309		-55.945676		3.587511		1.827781		23.270653		2.280649		3.419102		59.671858		-38.589374		18.547600		70.092151		104.125466		-35.791315		-21.734915		63.630642		64.402544		-42.184524		29.929490		74.186292		103.590539		-34.384639		-0.228642		90.000210		
0.925606		2.623277		1.176452		91.155276		-0.008218		0.407828		0.389855		94.061634		-15.302400		-1.610482		-138.697722		37.381793		10.203147		1.764916		95.640496		-7.699025		9.259074		-139.099170		38.136522		0.457041		-0.001603		-55.970510		3.541895		1.694183		23.094453		2.154682		3.501403		62.125599		-38.558246		20.400988		69.743178		104.553047		-35.199162		-21.194725		63.854395		67.029623		-42.194158		31.790670		73.559716		103.864740		-34.079453		0.494533		90.000210		
0.928434		2.580845		1.055183		91.187057		-0.008032		0.404104		0.388940		94.833496		-15.340829		-1.280232		-139.334556		37.080415		10.494099		1.835720		96.146102		-7.790602		9.405284		-139.578747		38.496904		0.865925		-0.093622		-55.921712		3.505873		1.582393		22.985301		2.015582		3.586050		64.465476		-38.485427		22.117895		69.421661		105.034500		-34.522005		-20.842595		63.944381		69.522228		-42.126787		33.484605		72.894528		104.266381		-33.753646		0.940747		90.000210		
0.931263		2.545687		1.032122		91.229213		-0.007760		0.400662		0.388048		95.472709		-15.384739		-0.989615		-139.956308		36.805976		10.798047		1.914610		96.546730		-7.916235		9.562335		-140.042595		38.844726		1.333763		-0.208875		-55.947523		3.460300		1.449217		22.742014		1.941639		3.685182		66.744502		-38.236647		23.704087		68.972433		105.419480		-33.855747		-20.339557		63.930629		72.029633		-42.023870		35.268849		72.155480		104.619237		-33.498807		1.442053		90.000210		
0.934091		2.535581		0.977475		91.277155		-0.007432		0.397352		0.387202		96.100367		-15.420781		-0.744815		-140.540003		36.558894		11.057267		1.989964		96.990383		-8.054486		9.731776		-140.473774		39.153514		1.775403		-0.340568		-55.954289		3.423597		1.339263		22.532618		1.889498		3.791904		68.900571		-37.942408		25.149844		68.549724		105.761096		-33.218036		-19.813271		63.810694		74.450422		-41.854268		36.977428		71.417921		104.934160		-33.354713		1.915356		90.000210		
0.936919		2.537477		1.102381		91.339352		-0.006983		0.394405		0.386316		96.482219		-15.466841		-0.564003		-141.119324		36.391513		11.283288		2.141302		97.239715		-8.213144		9.944535		-140.918918		39.486220		2.305658		-0.642923		-56.130434		3.365376		1.215194		22.267898		1.973782		3.891657		70.925668		-37.523492		26.418133		68.118765		105.893401		-32.617112		-18.919481		63.312844		76.971605		-41.676520		38.962965		70.634801		104.996814		-33.643439		2.599392		90.000210		
0.939747		2.573592		0.878589		91.385165		-0.006619		0.391200		0.385559		97.193583		-15.457699		-0.431332		-141.568031		36.188766		11.407710		2.225488		97.884299		-8.319039		10.116535		-141.306883		39.683323		2.610586		-0.848346		-55.995648		3.352905		1.187882		22.168769		1.906586		3.976055		72.808032		-37.257703		27.600764		67.854568		106.206011		-32.037245		-18.471489		62.949731		79.118619		-41.324986		40.405630		69.898369		105.262262		-33.771745		2.940627		90.000210		
0.942576		2.631828		0.802900		91.447219		-0.006164		0.388314		0.384801		97.683176		-15.450545		-0.376508		-141.996554		36.041120		11.460720		2.298150		98.384984		-8.433632		10.326349		-141.700683		39.840576		2.909576		-1.036165		-55.983739		3.349062		1.153627		21.934409		1.893682		4.029827		74.635889		-36.873422		28.697075		67.467761		106.445218		-31.477543		-17.980449		62.485090		81.260079		-40.921802		41.890536		69.052216		105.691442		-33.853837		3.167795		90.000210		
0.945404		2.703640		0.737378		91.520107		-0.005675		0.385648		0.384079		98.092953		-15.440898		-0.366915		-142.376253		35.969281		11.458315		2.385727		98.867438		-8.544135		10.536089		-142.066588		39.973728		3.196197		-1.251587		-55.995246		3.351576		1.148305		21.730484		1.915092		4.081313		76.340418		-36.500630		29.686316		67.147225		106.546762		-30.982762		-17.437344		61.814301		83.303901		-40.446824		43.291951		68.212444		106.103343		-34.038273		3.350435		90.000210		
0.948232		2.787234		0.679759		91.596730		-0.005194		0.383171		0.383365		98.438029		-15.431855		-0.398645		-142.708172		35.943551		11.416676		2.488039		99.337039		-8.640072		10.739354		-142.419821		40.068321		3.431308		-1.495924		-56.023256		3.360615		1.172041		21.547896		1.937248		4.100553		77.958555		-36.159349		30.624047		66.872775		106.533425		-30.539402		-16.890071		60.948533		85.246831		-39.901949		44.597996		67.362253		106.536031		-34.278631		3.467832		90.000210		
0.951061		2.866862		0.638667		91.684141		-0.004712		0.380917		0.382687		98.713583		-15.430286		-0.449890		-143.002957		35.954416		11.310283		2.762379		99.773184		-8.733097		10.921498		-142.743312		40.184092		3.673402		-2.119421		-56.088910		3.346157		1.276094		21.460024		2.041606		4.042324		79.433380		-36.056918		31.560307		66.850150		106.024800		-30.007360		-16.154729		58.731817		87.175104		-39.211447		46.000579		66.472388		106.795405		-35.018534		3.502888		90.000210		
0.953889		2.951130		0.587011		91.768178		-0.004282		0.378851		0.382006		98.953933		-15.431855		-0.513681		-143.256161		35.981790		11.227360		3.082363		100.198021		-8.808530		11.071316		-143.040951		40.260998		3.817484		-2.827324		-56.148397		3.341839		1.395695		21.370987		2.114166		3.946693		80.847823		-35.954103		32.429010		66.826190		105.545626		-29.375128		-15.566497		56.372404		88.950638		-38.486006		47.240480		65.603478		107.045624		-35.681898		3.462198		90.000210		
